<?xml version="1.0" encoding="UTF-8" standalone="no"?>
<!-- Created with Inkscape (http://www.inkscape.org/) -->

<svg
   width="499"
   height="200"
   viewBox="0 0 132.02708 52.916666"
   version="1.1"
   id="svg1"
   inkscape:version="1.4 (e7c3feb100, 2024-10-09)"
   sodipodi:docname="book n fly.svg"
   xml:space="preserve"
   xmlns:inkscape="http://www.inkscape.org/namespaces/inkscape"
   xmlns:sodipodi="http://sodipodi.sourceforge.net/DTD/sodipodi-0.dtd"
   xmlns="http://www.w3.org/2000/svg"
   xmlns:svg="http://www.w3.org/2000/svg"><sodipodi:namedview
     id="namedview1"
     pagecolor="#505050"
     bordercolor="#eeeeee"
     borderopacity="1"
     inkscape:showpageshadow="0"
     inkscape:pageopacity="0"
     inkscape:pagecheckerboard="0"
     inkscape:deskcolor="#505050"
     inkscape:document-units="mm"
     inkscape:zoom="1.5411756"
     inkscape:cx="248.83602"
     inkscape:cy="34.71376"
     inkscape:window-width="1920"
     inkscape:window-height="1052"
     inkscape:window-x="1920"
     inkscape:window-y="48"
     inkscape:window-maximized="1"
     inkscape:current-layer="layer1" /><defs
     id="defs1"><rect
       x="20.114515"
       y="26.603068"
       width="439.9239"
       height="137.55733"
       id="rect1" /></defs><g
     inkscape:label="Layer 1"
     inkscape:groupmode="layer"
     id="layer1"><path
       style="font-size:96px;font-family:Lobster;-inkscape-font-specification:Lobster;white-space:pre;fill:#ffffff;stroke-width:3.77953;stroke-linecap:round;stroke-linejoin:round;paint-order:markers fill stroke"
       d="m 57.267234,124.71552 q -3.84,0 -6.72,-1.632 -2.784,-1.536 -2.784,-5.472 0,-2.496 1.248,-5.568 1.728,1.92 3.168,2.688 1.536,0.768 3.264,0.768 4.8,0 7.104,-5.376 2.4,-5.376 2.4,-11.904004 0,-12.192 -9.12,-12.192 -2.592,0 -4.416,0.288 l -7.872,36.768004 h -13.824 l 13.056,-61.056004 14.208,-1.92 -4.512,21.312 h 0.576 q 3.648,0 6.816,-2.304 3.168,-2.4 5.088,-5.952 1.92,-3.648 1.92,-7.296 0,-4.416 -3.168,-7.392 -3.072,-2.976 -9.504,-2.976 -5.856,0 -11.424,2.688 -5.568,2.592 -9.12,7.872 -3.456,5.28 -3.456,12.768 0,3.552 0.672,4.992 0.672,1.344 0.672,1.536 -5.088,0 -7.68,-2.016 -2.592,-2.112 -2.592,-6.816 0,-6.528 4.896,-12.384 4.896,-5.856 12.96,-9.408 8.064,-3.648 16.992,-3.648 6.72,0 11.328,2.112 4.608,2.112 6.816,5.568 2.304,3.456 2.304,7.584 0,4.416 -2.496,8.544 -2.496,4.128 -7.104,6.72 5.76,1.056 8.544,5.376 2.784,4.224 2.784,10.08 0,5.472004 -2.112,11.904004 -2.016,6.432 -6.816,11.136 -4.704,4.608 -12.096,4.608 z m 38.400072,-1.248 q -7.104,0 -11.232,-3.648 -4.128,-3.648 -4.128,-11.52 0,-6.528 2.688,-14.496004 2.688,-7.968 8.64,-13.728 5.952,-5.856 14.976004,-5.856 12.288,0 12.288,15.36 v 0.096 q 0.288,0.096 1.056,0.096 3.168,0 7.296,-1.632 4.128,-1.728 7.488,-4.128 l 0.864,2.592 q -2.784,2.976 -7.296,5.088 -4.416,2.016 -9.696,2.88 -0.768,8.736004 -3.936,15.264004 -3.168,6.528 -8.16,10.08 -4.992,3.552 -10.848004,3.552 z m 3.84,-8.64 q 2.304004,0 4.608004,-2.592 2.304,-2.688 4.032,-7.2 1.728,-4.608 2.496,-10.176004 -2.592,-0.576 -2.592,-4.032 0,-3.936 2.976,-5.184 -0.192,-3.168 -0.96,-4.32 -0.768,-1.248 -2.688,-1.248 -3.168,0 -6.144,4.608 -2.976004,4.608 -4.800004,11.04 -1.824,6.432004 -1.824,11.328004 0,4.608 1.056,6.24 1.056,1.536 3.84,1.536 z m 38.303924,8.64 q -7.104,0 -11.232,-3.648 -4.128,-3.648 -4.128,-11.52 0,-6.528 2.688,-14.496004 2.688,-7.968 8.64,-13.728 5.952,-5.856 14.976,-5.856 12.288,0 12.288,15.36 v 0.096 q 0.288,0.096 1.056,0.096 3.168,0 7.296,-1.632 4.128,-1.728 7.488,-4.128 l 0.864,2.592 q -2.784,2.976 -7.296,5.088 -4.416,2.016 -9.696,2.88 -0.768,8.736004 -3.936,15.264004 -3.168,6.528 -8.16,10.08 -4.992,3.552 -10.848,3.552 z m 3.84,-8.64 q 2.304,0 4.608,-2.592 2.304,-2.688 4.032,-7.2 1.728,-4.608 2.496,-10.176004 -2.592,-0.576 -2.592,-4.032 0,-3.936 2.976,-5.184 -0.192,-3.168 -0.96,-4.32 -0.768,-1.248 -2.688,-1.248 -3.168,0 -6.144,4.608 -2.976,4.608 -4.8,11.04 -1.824,6.432004 -1.824,11.328004 0,4.608 1.056,6.24 1.056,1.536 3.84,1.536 z m 60.38392,8.832 q -5.952,0 -9.024,-2.784 -3.072,-2.88 -3.072,-8.16 0,-2.304 0.576,-4.992 l 0.768,-3.744 q 0.384,-1.632 0.384,-3.552 0,-4.608004 -3.456,-4.608004 -1.536,0 -3.264,0.864 -1.632,0.864 -3.84,2.688 l -4.992,23.712004 h -13.824 l 13.92,-65.280004 14.208,-1.92 -7.2,33.792 18.528,-14.592 h 9.504 l -19.2,13.344 q 1.44,-0.384 3.168,-0.384 5.184,0 7.872,3.168 2.688,3.168 2.688,8.064 0,2.016004 -0.384,3.648004 l -1.056,4.8 q -0.48,1.728 -0.48,3.072 0,3.552 3.744,3.552 2.112,0 2.688,-0.288 0.576,-0.288 0.672,-0.288 -0.192,3.168 -1.824,5.376 -1.536,2.208 -3.648,3.36 -2.016,1.152 -3.456,1.152 z m 63.0721,0 q -5.088,0 -7.392,-3.072 -2.304,-3.072 -2.304,-7.776 0,-2.016 0.48,-4.512 0.48,-2.592 0.96,-4.992 0.576,-2.4 0.768,-3.072 0.768,-3.360004 1.44,-6.624004 0.672,-3.264 0.672,-5.28 0,-4.896 -3.456,-4.896 -2.496,0 -4.416,2.496 -1.92,2.4 -3.072,6.336 l -6.528,30.816004 h -13.824 l 10.176,-48.000004 h 13.824 l -1.056,4.992 q 4.8,-5.376 11.232,-5.376 4.896,0 7.776,2.688 2.88,2.688 2.88,8.16 0,2.784 -0.672,6.24 -0.672,3.36 -1.92,8.256004 -0.768,2.976 -1.44,5.856 -0.576,2.784 -0.576,4.416 0,1.92 0.864,2.976 0.864,1.056 2.976,1.056 2.304,0 3.168,-0.576 -0.576,4.896 -3.552,7.392 -2.88,2.496 -7.008,2.496 z M 290.5473,50.891516 h 10.08 l -10.56,22.272 h -6.72 z m 47.04001,8.064 q -6.048,0.192 -9.312,4.608 -3.168,4.416 -3.168,15.264 0,3.552 0.672,4.992 0.672,1.344 0.672,1.536 -5.184,0 -7.776,-2.112 -2.496,-2.208 -2.496,-7.2 0,-6.816 3.36,-12.384 3.36,-5.664 10.656,-9.12 7.392,-3.456 18.72,-3.456 2.304,0 6.144,0.48 6.912,0.672 9.792,0.672 5.088,0 8.64,-1.152 -0.288,0.864 -1.056,3.84 -0.768,2.88 -2.784,4.992 -1.92,2.016 -5.28,2.688 -5.664,0 -13.44,-1.824 l -4.032,19.104 h 14.016 l -1.536,7.104 h -14.016 l -7.776,36.096004 h -13.824 z m 31.29596,64.704004 q -4.608,0 -7.488,-2.88 -2.784,-2.88 -2.784,-8.64 0,-2.4 0.768,-6.24 l 10.272,-48.096004 14.208,-1.92 -11.04,51.840004 q -0.384,1.44 -0.384,3.072 0,1.92 0.864,2.784 0.96,0.768 3.072,0.768 2.784,0 5.184,-2.304 2.4,-2.4 3.456,-6.144 h 4.032 q -3.552,10.368 -9.12,14.112 -5.568,3.648 -11.04,3.648 z m 31.10402,23.424 q -4.512,0 -7.968,-2.976 -3.36,-2.88 -3.36,-7.392 0,-4.224 2.112,-6.912 2.112,-2.688 5.472,-4.224 3.36,-1.536 9.024,-3.264 l 0.96,-4.224 q -4.896,5.568 -11.712,5.568 -4.608,0 -7.488,-2.88 -2.784,-2.88 -2.784,-8.64 0,-2.4 0.768,-6.24 l 6.528,-30.816004 h 13.824 l -6.912,32.640004 q -0.288,1.152 -0.288,2.4 0,4.224 2.88,4.224 2.688,0 4.608,-2.208 1.92,-2.304 3.072,-6.24 l 6.528,-30.816004 h 13.92 l -11.712,55.680004 q -1.92,9.216 -6.816,12.768 -4.8,3.552 -10.656,3.552 z m -2.208,-8.544 q 1.728,0 3.264,-1.824 1.536,-1.728 2.4,-5.664 l 1.152,-5.664 q -5.088,1.728 -7.872,4.032 -2.784,2.304 -2.784,5.952 0,1.152 1.152,2.112 1.152,1.056 2.688,1.056 z"
       id="text1"
       transform="matrix(0.20650269,0,0,0.17177761,4.1537118,2.4912318)"
       aria-label="Book n' Fly" /><path
       style="fill:none;stroke:#ffffff;stroke-width:0.5;stroke-linecap:round;stroke-linejoin:round;stroke-dasharray:0.5, 1.5;stroke-dashoffset:0;stroke-opacity:1;paint-order:markers fill stroke"
       d="m 46.180926,30.043355 c 6.695376,-4.63526 28.363345,2.517404 32.96185,5.493641 5.923614,3.833872 26.479244,1.350866 27.468204,1.030057 13.38058,-4.340529 7.72544,-20.772833 -0.17167,-16.824277 -7.897111,3.948554 -10.128901,11.845663 -2.57514,12.189018 7.55375,0.343352 11.67398,7.553756 11.67398,7.553756"
       id="path1"
       sodipodi:nodetypes="cssssc" /><path
       d="m 121.04126,39.425936 0.28235,0.357101 c 0.15594,0.207781 0.0492,0.505014 0.0492,0.505014 l -0.25388,0.891011 0.38475,0.524449 c 0.20358,0.276422 -0.19199,0.443486 -0.30398,0.330327 l -0.24098,-0.27546 -0.32076,0.952805 0.3399,0.387393 c 0.37372,0.415543 -0.0462,0.625213 -0.24854,0.432909 l -0.24097,-0.253369 -0.40138,1.443104 c 1.03648,1.437781 1.4676,2.025894 1.12034,2.315817 -0.3495,0.291791 -0.86657,-0.386192 -1.88879,-1.707076 l -1.54479,-0.0069 0.21281,0.344659 c 0.12562,0.20346 -0.16353,0.491707 -0.43209,0.113245 l -0.33922,-0.480711 -1.01711,0.03742 0.16577,0.293776 c 0.15286,0.260358 -0.13383,0.509195 -0.42651,0.144967 l -0.36378,-0.48106 c -0.0105,-0.01917 -0.88935,0.01335 -0.88935,0.01335 -0.43358,0.03539 -0.55326,-0.223406 -0.55326,-0.223406 l -0.21059,-0.324782 3.2563,-0.655534 c 0.28574,-0.05204 0.61483,-0.24027 0.63456,-0.630357 0.007,-0.206593 -0.2664,-0.77015 -0.3388,-0.851157 l -0.97477,-1.353312 c -0.0173,-0.03339 -1.51386,-0.02897 -1.51386,-0.02897 -0.0433,-0.0062 -0.4844,-0.454073 -0.4844,-0.454073 l 1.44988,-0.562732 -0.12013,-0.39709 0.30796,0.266073 0.96002,-1.248592 0.29983,0.562203 c -0.0908,0.234454 -0.41497,1.485346 -0.40569,1.513178 0,0 0.87909,1.181569 0.93276,1.249525 0.31063,0.393293 0.4285,0.527528 0.59862,0.604794 0.17026,0.07733 0.44326,0.02586 0.84945,-0.464021 0.56019,-0.67561 1.66913,-2.884519 1.66913,-2.884519 z"
       id="path3166"
       style="fill:#ffffff;fill-opacity:1;stroke:none;stroke-width:0.0203849" /></g></svg>
